<svg width="99" height="62" viewBox="0 0 99 62" fill="none" xmlns="http://www.w3.org/2000/svg">
<path d="M21.8602 44.825V22.1341H24.608V32.2386H36.7068V22.1341H39.4546V44.825H36.7068V34.6761H24.608V44.825H21.8602ZM64.101 33.4796C64.101 35.8727 63.6689 37.9409 62.8047 39.6841C61.9405 41.4273 60.755 42.7716 59.2482 43.7171C57.7413 44.6625 56.0203 45.1352 54.0851 45.1352C52.1499 45.1352 50.4288 44.6625 48.922 43.7171C47.4152 42.7716 46.2297 41.4273 45.3655 39.6841C44.5013 37.9409 44.0692 35.8727 44.0692 33.4796C44.0692 31.0864 44.5013 29.0182 45.3655 27.275C46.2297 25.5318 47.4152 24.1875 48.922 23.2421C50.4288 22.2966 52.1499 21.8239 54.0851 21.8239C56.0203 21.8239 57.7413 22.2966 59.2482 23.2421C60.755 24.1875 61.9405 25.5318 62.8047 27.275C63.6689 29.0182 64.101 31.0864 64.101 33.4796ZM61.4419 33.4796C61.4419 31.5148 61.1132 29.8565 60.4558 28.5048C59.8058 27.1531 58.9232 26.1301 57.8078 25.4358C56.6999 24.7415 55.459 24.3943 54.0851 24.3943C52.7112 24.3943 51.4666 24.7415 50.3513 25.4358C49.2433 26.1301 48.3607 27.1531 47.7033 28.5048C47.0533 29.8565 46.7283 31.5148 46.7283 33.4796C46.7283 35.4443 47.0533 37.1026 47.7033 38.4543C48.3607 39.806 49.2433 40.829 50.3513 41.5233C51.4666 42.2176 52.7112 42.5648 54.0851 42.5648C55.459 42.5648 56.6999 42.2176 57.8078 41.5233C58.9232 40.829 59.8058 39.806 60.4558 38.4543C61.1132 37.1026 61.4419 35.4443 61.4419 33.4796ZM72.8428 44.825L66.6382 22.1341H69.4303L74.1723 40.6148H74.3939L79.2246 22.1341H82.3269L87.1575 40.6148H87.3791L92.1212 22.1341H94.9132L88.7087 44.825H85.8723L80.8644 26.7432H80.6871L75.6791 44.825H72.8428Z" fill="white"/>
<line x1="14.725" y1="7.60001" x2="14.725" y2="61.55" stroke="white" stroke-width="1.625"/>
<line x1="54.05" y1="52.775" x2="54.05" y2="61.55" stroke="white" stroke-width="1.625"/>
<line x1="54.05" y1="7.60001" x2="54.05" y2="16.375" stroke="white" stroke-width="1.625"/>
<line x1="41.05" y1="0.450012" x2="41.05" y2="9.22501" stroke="white" stroke-width="1.625"/>
<line x1="54.8625" y1="8.41251" x2="13.9125" y2="8.41251" stroke="white" stroke-width="1.625"/>
<line x1="54.8625" y1="60.7375" x2="13.9125" y2="60.7375" stroke="white" stroke-width="1.625"/>
<line x1="1.72501" y1="0.450012" x2="1.72501" y2="54.4" stroke="white" stroke-width="1.625"/>
<line x1="41.8625" y1="1.26251" x2="0.912502" y2="1.26251" stroke="white" stroke-width="1.625"/>
<line x1="15.2125" y1="53.5875" x2="0.912509" y2="53.5875" stroke="white" stroke-width="1.625"/>
</svg>
