<svg width="99" height="62" viewBox="0 0 99 62" fill="none" xmlns="http://www.w3.org/2000/svg">
<path d="M21.8455 50.3V46.5182H22.3034V48.2023H24.3199V46.5182H24.7778V50.3H24.3199V48.6085H22.3034V50.3H21.8455ZM25.8498 50.3H25.3697L26.7583 46.5182H27.231L28.6197 50.3H28.1396L27.0094 47.1165H26.9799L25.8498 50.3ZM26.0271 48.8227H27.9623V49.229H26.0271V48.8227ZM32.2076 46.5182V50.3H31.7644L29.7036 47.3307H29.6667V50.3H29.2087V46.5182H29.6519L31.7201 49.4949H31.757V46.5182H32.2076ZM34.291 50.3H33.124V46.5182H34.3427C34.7096 46.5182 35.0235 46.5939 35.2845 46.7453C35.5455 46.8955 35.7455 47.1116 35.8846 47.3935C36.0237 47.6742 36.0933 48.0102 36.0933 48.4017C36.0933 48.7957 36.0231 49.1348 35.8828 49.4192C35.7424 49.7023 35.5381 49.9202 35.2697 50.0729C35.0013 50.2243 34.6751 50.3 34.291 50.3ZM33.5819 49.8938H34.2615C34.5742 49.8938 34.8333 49.8334 35.0389 49.7128C35.2445 49.5922 35.3977 49.4204 35.4987 49.1976C35.5996 48.9748 35.6501 48.7095 35.6501 48.4017C35.6501 48.0964 35.6002 47.8336 35.5005 47.6132C35.4008 47.3916 35.2519 47.2218 35.0537 47.1036C34.8555 46.9842 34.6086 46.9244 34.3132 46.9244H33.5819V49.8938ZM38.9296 47.4637C38.9075 47.2765 38.8176 47.1313 38.66 47.0279C38.5025 46.9244 38.3092 46.8727 38.0802 46.8727C37.9128 46.8727 37.7663 46.8998 37.6407 46.954C37.5164 47.0082 37.4191 47.0826 37.349 47.1774C37.28 47.2722 37.2456 47.3799 37.2456 47.5006C37.2456 47.6015 37.2696 47.6883 37.3176 47.761C37.3668 47.8324 37.4296 47.8921 37.5059 47.9401C37.5823 47.9869 37.6623 48.0256 37.746 48.0564C37.8297 48.086 37.9066 48.11 37.9768 48.1284L38.3609 48.2318C38.4594 48.2577 38.5689 48.2934 38.6896 48.3389C38.8115 48.3845 38.9278 48.4467 39.0386 48.5254C39.1506 48.603 39.243 48.7027 39.3156 48.8246C39.3882 48.9465 39.4245 49.096 39.4245 49.2733C39.4245 49.4777 39.371 49.6623 39.2639 49.8273C39.158 49.9923 39.0029 50.1234 38.7985 50.2206C38.5954 50.3179 38.3486 50.3665 38.0581 50.3665C37.7872 50.3665 37.5527 50.3228 37.3545 50.2354C37.1575 50.148 37.0024 50.0261 36.8892 49.8698C36.7771 49.7134 36.7137 49.5318 36.699 49.325H37.1717C37.184 49.4678 37.232 49.586 37.3157 49.6796C37.4007 49.7719 37.5078 49.8408 37.637 49.8864C37.7675 49.9307 37.9079 49.9529 38.0581 49.9529C38.2329 49.9529 38.3898 49.9245 38.5289 49.8679C38.668 49.8101 38.7782 49.73 38.8595 49.6279C38.9407 49.5245 38.9814 49.4038 38.9814 49.2659C38.9814 49.1404 38.9463 49.0382 38.8761 48.9594C38.8059 48.8806 38.7136 48.8166 38.5991 48.7673C38.4846 48.7181 38.3609 48.675 38.2279 48.6381L37.7626 48.5051C37.4671 48.4202 37.2332 48.2989 37.0609 48.1414C36.8886 47.9838 36.8024 47.7776 36.8024 47.5227C36.8024 47.311 36.8596 47.1263 36.9741 46.9688C37.0898 46.81 37.2449 46.6869 37.4395 46.5994C37.6352 46.5108 37.8537 46.4665 38.095 46.4665C38.3387 46.4665 38.5554 46.5102 38.745 46.5976C38.9346 46.6838 39.0848 46.802 39.1956 46.9521C39.3076 47.1023 39.3667 47.2728 39.3728 47.4637H38.9296ZM44.8309 48.4091C44.8309 48.808 44.7589 49.1527 44.6148 49.4432C44.4708 49.7337 44.2732 49.9578 44.0221 50.1154C43.771 50.2729 43.4841 50.3517 43.1616 50.3517C42.839 50.3517 42.5522 50.2729 42.3011 50.1154C42.0499 49.9578 41.8523 49.7337 41.7083 49.4432C41.5643 49.1527 41.4923 48.808 41.4923 48.4091C41.4923 48.0102 41.5643 47.6655 41.7083 47.375C41.8523 47.0845 42.0499 46.8604 42.3011 46.7029C42.5522 46.5453 42.839 46.4665 43.1616 46.4665C43.4841 46.4665 43.771 46.5453 44.0221 46.7029C44.2732 46.8604 44.4708 47.0845 44.6148 47.375C44.7589 47.6655 44.8309 48.0102 44.8309 48.4091ZM44.3877 48.4091C44.3877 48.0816 44.3329 47.8053 44.2234 47.58C44.115 47.3547 43.9679 47.1842 43.782 47.0685C43.5974 46.9528 43.3906 46.8949 43.1616 46.8949C42.9326 46.8949 42.7252 46.9528 42.5393 47.0685C42.3546 47.1842 42.2075 47.3547 42.0979 47.58C41.9896 47.8053 41.9354 48.0816 41.9354 48.4091C41.9354 48.7366 41.9896 49.0129 42.0979 49.2382C42.2075 49.4635 42.3546 49.634 42.5393 49.7497C42.7252 49.8655 42.9326 49.9233 43.1616 49.9233C43.3906 49.9233 43.5974 49.8655 43.782 49.7497C43.9679 49.634 44.115 49.4635 44.2234 49.2382C44.3329 49.0129 44.3877 48.7366 44.3877 48.4091ZM48.5998 46.5182V50.3H48.1566L46.0958 47.3307H46.0589V50.3H45.6009V46.5182H46.0441L48.1123 49.4949H48.1492V46.5182H48.5998ZM51.6656 50.3L50.6315 46.5182H51.0968L51.8872 49.5983H51.9241L52.7292 46.5182H53.2463L54.0514 49.5983H54.0883L54.8787 46.5182H55.344L54.3099 50.3H53.8372L53.0025 47.2864H52.973L52.1383 50.3H51.6656ZM58.9278 48.4091C58.9278 48.808 58.8558 49.1527 58.7117 49.4432C58.5677 49.7337 58.3701 49.9578 58.119 50.1154C57.8678 50.2729 57.581 50.3517 57.2584 50.3517C56.9359 50.3517 56.6491 50.2729 56.3979 50.1154C56.1468 49.9578 55.9492 49.7337 55.8052 49.4432C55.6611 49.1527 55.5891 48.808 55.5891 48.4091C55.5891 48.0102 55.6611 47.6655 55.8052 47.375C55.9492 47.0845 56.1468 46.8604 56.3979 46.7029C56.6491 46.5453 56.9359 46.4665 57.2584 46.4665C57.581 46.4665 57.8678 46.5453 58.119 46.7029C58.3701 46.8604 58.5677 47.0845 58.7117 47.375C58.8558 47.6655 58.9278 48.0102 58.9278 48.4091ZM58.4846 48.4091C58.4846 48.0816 58.4298 47.8053 58.3202 47.58C58.2119 47.3547 58.0648 47.1842 57.8789 47.0685C57.6942 46.9528 57.4874 46.8949 57.2584 46.8949C57.0295 46.8949 56.822 46.9528 56.6361 47.0685C56.4515 47.1842 56.3044 47.3547 56.1948 47.58C56.0865 47.8053 56.0323 48.0816 56.0323 48.4091C56.0323 48.7366 56.0865 49.0129 56.1948 49.2382C56.3044 49.4635 56.4515 49.634 56.6361 49.7497C56.822 49.8655 57.0295 49.9233 57.2584 49.9233C57.4874 49.9233 57.6942 49.8655 57.8789 49.7497C58.0648 49.634 58.2119 49.4635 58.3202 49.2382C58.4298 49.0129 58.4846 48.7366 58.4846 48.4091ZM59.6978 50.3V46.5182H60.9756C61.2711 46.5182 61.5136 46.5687 61.7032 46.6696C61.8928 46.7693 62.0331 46.9066 62.1242 47.0814C62.2153 47.2562 62.2609 47.455 62.2609 47.6779C62.2609 47.9007 62.2153 48.0983 62.1242 48.2706C62.0331 48.443 61.8934 48.5784 61.705 48.6769C61.5167 48.7741 61.276 48.8227 60.983 48.8227H59.9489V48.4091H60.9683C61.1701 48.4091 61.3326 48.3796 61.4558 48.3205C61.5801 48.2614 61.67 48.1777 61.7254 48.0693C61.782 47.9598 61.8103 47.8293 61.8103 47.6779C61.8103 47.5264 61.782 47.3941 61.7254 47.2808C61.6687 47.1676 61.5782 47.0802 61.4539 47.0186C61.3296 46.9558 61.1652 46.9244 60.9609 46.9244H60.1558V50.3H59.6978ZM61.4779 48.6012L62.4086 50.3H61.8768L60.9609 48.6012H61.4779ZM63.024 50.3V46.5182H63.4819V48.3943H63.5262L65.2251 46.5182H65.8234L64.2353 48.2244L65.8234 50.3H65.2694L63.9546 48.5421L63.4819 49.0739V50.3H63.024ZM68.4843 47.4637C68.4622 47.2765 68.3723 47.1313 68.2147 47.0279C68.0572 46.9244 67.8639 46.8727 67.6349 46.8727C67.4675 46.8727 67.321 46.8998 67.1954 46.954C67.0711 47.0082 66.9738 47.0826 66.9037 47.1774C66.8347 47.2722 66.8002 47.3799 66.8002 47.5006C66.8002 47.6015 66.8243 47.6883 66.8723 47.761C66.9215 47.8324 66.9843 47.8921 67.0606 47.9401C67.1369 47.9869 67.217 48.0256 67.3007 48.0564C67.3844 48.086 67.4613 48.11 67.5315 48.1284L67.9156 48.2318C68.0141 48.2577 68.1236 48.2934 68.2443 48.3389C68.3662 48.3845 68.4825 48.4467 68.5933 48.5254C68.7053 48.603 68.7976 48.7027 68.8703 48.8246C68.9429 48.9465 68.9792 49.096 68.9792 49.2733C68.9792 49.4777 68.9257 49.6623 68.8186 49.8273C68.7127 49.9923 68.5576 50.1234 68.3532 50.2206C68.1501 50.3179 67.9033 50.3665 67.6127 50.3665C67.3419 50.3665 67.1074 50.3228 66.9092 50.2354C66.7122 50.148 66.5571 50.0261 66.4439 49.8698C66.3318 49.7134 66.2684 49.5318 66.2537 49.325H66.7264C66.7387 49.4678 66.7867 49.586 66.8704 49.6796C66.9554 49.7719 67.0625 49.8408 67.1917 49.8864C67.3222 49.9307 67.4626 49.9529 67.6127 49.9529C67.7876 49.9529 67.9445 49.9245 68.0836 49.8679C68.2227 49.8101 68.3329 49.73 68.4142 49.6279C68.4954 49.5245 68.536 49.4038 68.536 49.2659C68.536 49.1404 68.501 49.0382 68.4308 48.9594C68.3606 48.8806 68.2683 48.8166 68.1538 48.7673C68.0393 48.7181 67.9156 48.675 67.7826 48.6381L67.3173 48.5051C67.0218 48.4202 66.7879 48.2989 66.6156 48.1414C66.4432 47.9838 66.3571 47.7776 66.3571 47.5227C66.3571 47.311 66.4143 47.1263 66.5288 46.9688C66.6445 46.81 66.7996 46.6869 66.9941 46.5994C67.1899 46.5108 67.4084 46.4665 67.6497 46.4665C67.8934 46.4665 68.1101 46.5102 68.2997 46.5976C68.4893 46.6838 68.6395 46.802 68.7502 46.9521C68.8623 47.1023 68.9214 47.2728 68.9275 47.4637H68.4843Z" fill="white"/>
<path d="M21.8602 41.825V19.1341H24.608V29.2386H36.7068V19.1341H39.4546V41.825H36.7068V31.6761H24.608V41.825H21.8602ZM64.101 30.4796C64.101 32.8727 63.6689 34.9409 62.8047 36.6841C61.9405 38.4273 60.755 39.7716 59.2482 40.7171C57.7413 41.6625 56.0203 42.1352 54.0851 42.1352C52.1499 42.1352 50.4288 41.6625 48.922 40.7171C47.4152 39.7716 46.2297 38.4273 45.3655 36.6841C44.5013 34.9409 44.0692 32.8727 44.0692 30.4796C44.0692 28.0864 44.5013 26.0182 45.3655 24.275C46.2297 22.5318 47.4152 21.1875 48.922 20.2421C50.4288 19.2966 52.1499 18.8239 54.0851 18.8239C56.0203 18.8239 57.7413 19.2966 59.2482 20.2421C60.755 21.1875 61.9405 22.5318 62.8047 24.275C63.6689 26.0182 64.101 28.0864 64.101 30.4796ZM61.4419 30.4796C61.4419 28.5148 61.1132 26.8565 60.4558 25.5048C59.8058 24.1531 58.9232 23.1301 57.8078 22.4358C56.6999 21.7415 55.459 21.3943 54.0851 21.3943C52.7112 21.3943 51.4666 21.7415 50.3513 22.4358C49.2433 23.1301 48.3607 24.1531 47.7033 25.5048C47.0533 26.8565 46.7283 28.5148 46.7283 30.4796C46.7283 32.4443 47.0533 34.1026 47.7033 35.4543C48.3607 36.806 49.2433 37.829 50.3513 38.5233C51.4666 39.2176 52.7112 39.5648 54.0851 39.5648C55.459 39.5648 56.6999 39.2176 57.8078 38.5233C58.9232 37.829 59.8058 36.806 60.4558 35.4543C61.1132 34.1026 61.4419 32.4443 61.4419 30.4796ZM72.8428 41.825L66.6382 19.1341H69.4303L74.1723 37.6148H74.3939L79.2246 19.1341H82.3269L87.1575 37.6148H87.3791L92.1212 19.1341H94.9132L88.7087 41.825H85.8723L80.8644 23.7432H80.6871L75.6791 41.825H72.8428Z" fill="white"/>
<line x1="14.725" y1="7.60001" x2="14.725" y2="61.55" stroke="white" stroke-width="1.625"/>
<line x1="54.05" y1="52.775" x2="54.05" y2="61.55" stroke="white" stroke-width="1.625"/>
<line x1="54.05" y1="7.60001" x2="54.05" y2="16.375" stroke="white" stroke-width="1.625"/>
<line x1="41.05" y1="0.450012" x2="41.05" y2="9.22501" stroke="white" stroke-width="1.625"/>
<line x1="54.8625" y1="8.41251" x2="13.9125" y2="8.41251" stroke="white" stroke-width="1.625"/>
<line x1="54.8625" y1="60.7375" x2="13.9125" y2="60.7375" stroke="white" stroke-width="1.625"/>
<line x1="1.72501" y1="0.450012" x2="1.72501" y2="54.4" stroke="white" stroke-width="1.625"/>
<line x1="41.8625" y1="1.26251" x2="0.912502" y2="1.26251" stroke="white" stroke-width="1.625"/>
<line x1="15.2125" y1="53.5875" x2="0.912509" y2="53.5875" stroke="white" stroke-width="1.625"/>
</svg>
