<svg width="299" height="188" viewBox="0 0 299 188" fill="none" xmlns="http://www.w3.org/2000/svg">
<path d="M64.4091 153V141.364H65.8182V146.545H72.0227V141.364H73.4318V153H72.0227V147.795H65.8182V153H64.4091ZM76.7301 153H75.2528L79.5256 141.364H80.9801L85.2528 153H83.7756L80.2983 143.205H80.2074L76.7301 153ZM77.2756 148.455H83.2301V149.705H77.2756V148.455ZM96.2926 141.364V153H94.929L88.5881 143.864H88.4744V153H87.0653V141.364H88.429L94.7926 150.523H94.9062V141.364H96.2926ZM102.703 153H99.1122V141.364H102.862C103.991 141.364 104.957 141.597 105.76 142.062C106.563 142.525 107.179 143.189 107.607 144.057C108.035 144.92 108.249 145.955 108.249 147.159C108.249 148.371 108.033 149.415 107.601 150.29C107.169 151.161 106.54 151.831 105.714 152.301C104.889 152.767 103.885 153 102.703 153ZM100.521 151.75H102.612C103.574 151.75 104.372 151.564 105.004 151.193C105.637 150.822 106.108 150.294 106.419 149.608C106.73 148.922 106.885 148.106 106.885 147.159C106.885 146.22 106.732 145.411 106.425 144.733C106.118 144.051 105.66 143.528 105.05 143.165C104.44 142.797 103.68 142.614 102.771 142.614H100.521V151.75ZM116.976 144.273C116.908 143.697 116.631 143.25 116.146 142.932C115.661 142.614 115.067 142.455 114.362 142.455C113.847 142.455 113.396 142.538 113.01 142.705C112.627 142.871 112.328 143.1 112.112 143.392C111.9 143.684 111.794 144.015 111.794 144.386C111.794 144.697 111.868 144.964 112.016 145.188C112.167 145.407 112.36 145.591 112.595 145.739C112.83 145.883 113.076 146.002 113.334 146.097C113.591 146.187 113.828 146.261 114.044 146.318L115.226 146.636C115.529 146.716 115.866 146.826 116.237 146.966C116.612 147.106 116.97 147.297 117.311 147.54C117.656 147.778 117.94 148.085 118.163 148.46C118.387 148.835 118.499 149.295 118.499 149.841C118.499 150.47 118.334 151.038 118.004 151.545C117.679 152.053 117.201 152.456 116.572 152.756C115.947 153.055 115.188 153.205 114.294 153.205C113.461 153.205 112.739 153.07 112.129 152.801C111.523 152.532 111.046 152.157 110.697 151.676C110.353 151.195 110.158 150.636 110.112 150H111.567C111.605 150.439 111.752 150.803 112.01 151.091C112.271 151.375 112.601 151.587 112.999 151.727C113.4 151.864 113.832 151.932 114.294 151.932C114.832 151.932 115.315 151.845 115.743 151.67C116.171 151.492 116.51 151.246 116.76 150.932C117.01 150.614 117.135 150.242 117.135 149.818C117.135 149.432 117.027 149.117 116.811 148.875C116.595 148.633 116.311 148.436 115.959 148.284C115.607 148.133 115.226 148 114.817 147.886L113.385 147.477C112.476 147.216 111.756 146.843 111.226 146.358C110.696 145.873 110.43 145.239 110.43 144.455C110.43 143.803 110.607 143.235 110.959 142.75C111.315 142.261 111.792 141.883 112.391 141.614C112.993 141.341 113.665 141.205 114.408 141.205C115.158 141.205 115.824 141.339 116.408 141.608C116.991 141.873 117.453 142.237 117.794 142.699C118.139 143.161 118.321 143.686 118.339 144.273H116.976ZM135.134 147.182C135.134 148.409 134.912 149.47 134.469 150.364C134.026 151.258 133.418 151.947 132.645 152.432C131.872 152.917 130.99 153.159 129.997 153.159C129.005 153.159 128.122 152.917 127.349 152.432C126.577 151.947 125.969 151.258 125.526 150.364C125.082 149.47 124.861 148.409 124.861 147.182C124.861 145.955 125.082 144.894 125.526 144C125.969 143.106 126.577 142.417 127.349 141.932C128.122 141.447 129.005 141.205 129.997 141.205C130.99 141.205 131.872 141.447 132.645 141.932C133.418 142.417 134.026 143.106 134.469 144C134.912 144.894 135.134 145.955 135.134 147.182ZM133.77 147.182C133.77 146.174 133.601 145.324 133.264 144.631C132.931 143.938 132.478 143.413 131.906 143.057C131.338 142.701 130.702 142.523 129.997 142.523C129.293 142.523 128.654 142.701 128.082 143.057C127.514 143.413 127.062 143.938 126.724 144.631C126.391 145.324 126.224 146.174 126.224 147.182C126.224 148.189 126.391 149.04 126.724 149.733C127.062 150.426 127.514 150.951 128.082 151.307C128.654 151.663 129.293 151.841 129.997 151.841C130.702 151.841 131.338 151.663 131.906 151.307C132.478 150.951 132.931 150.426 133.264 149.733C133.601 149.04 133.77 148.189 133.77 147.182ZM146.73 141.364V153H145.366L139.026 143.864H138.912V153H137.503V141.364H138.866L145.23 150.523H145.344V141.364H146.73ZM156.163 153L152.982 141.364H154.413L156.845 150.841H156.959L159.436 141.364H161.027L163.504 150.841H163.618L166.05 141.364H167.482L164.3 153H162.845L160.277 143.727H160.186L157.618 153H156.163ZM178.509 147.182C178.509 148.409 178.287 149.47 177.844 150.364C177.401 151.258 176.793 151.947 176.02 152.432C175.247 152.917 174.365 153.159 173.372 153.159C172.38 153.159 171.497 152.917 170.724 152.432C169.952 151.947 169.344 151.258 168.901 150.364C168.457 149.47 168.236 148.409 168.236 147.182C168.236 145.955 168.457 144.894 168.901 144C169.344 143.106 169.952 142.417 170.724 141.932C171.497 141.447 172.38 141.205 173.372 141.205C174.365 141.205 175.247 141.447 176.02 141.932C176.793 142.417 177.401 143.106 177.844 144C178.287 144.894 178.509 145.955 178.509 147.182ZM177.145 147.182C177.145 146.174 176.976 145.324 176.639 144.631C176.306 143.938 175.853 143.413 175.281 143.057C174.713 142.701 174.077 142.523 173.372 142.523C172.668 142.523 172.029 142.701 171.457 143.057C170.889 143.413 170.437 143.938 170.099 144.631C169.766 145.324 169.599 146.174 169.599 147.182C169.599 148.189 169.766 149.04 170.099 149.733C170.437 150.426 170.889 150.951 171.457 151.307C172.029 151.663 172.668 151.841 173.372 151.841C174.077 151.841 174.713 151.663 175.281 151.307C175.853 150.951 176.306 150.426 176.639 149.733C176.976 149.04 177.145 148.189 177.145 147.182ZM180.878 153V141.364H184.81C185.719 141.364 186.465 141.519 187.048 141.83C187.632 142.136 188.063 142.559 188.344 143.097C188.624 143.634 188.764 144.246 188.764 144.932C188.764 145.617 188.624 146.225 188.344 146.756C188.063 147.286 187.634 147.703 187.054 148.006C186.474 148.305 185.734 148.455 184.832 148.455H181.651V147.182H184.787C185.408 147.182 185.908 147.091 186.287 146.909C186.67 146.727 186.946 146.47 187.116 146.136C187.291 145.799 187.378 145.398 187.378 144.932C187.378 144.466 187.291 144.059 187.116 143.71C186.942 143.362 186.664 143.093 186.281 142.903C185.899 142.71 185.393 142.614 184.764 142.614H182.287V153H180.878ZM186.355 147.773L189.219 153H187.582L184.764 147.773H186.355ZM191.112 153V141.364H192.521V147.136H192.658L197.885 141.364H199.726L194.839 146.614L199.726 153H198.021L193.976 147.591L192.521 149.227V153H191.112ZM207.913 144.273C207.845 143.697 207.569 143.25 207.084 142.932C206.599 142.614 206.004 142.455 205.3 142.455C204.785 142.455 204.334 142.538 203.947 142.705C203.565 142.871 203.266 143.1 203.05 143.392C202.838 143.684 202.732 144.015 202.732 144.386C202.732 144.697 202.805 144.964 202.953 145.188C203.105 145.407 203.298 145.591 203.533 145.739C203.768 145.883 204.014 146.002 204.271 146.097C204.529 146.187 204.766 146.261 204.982 146.318L206.163 146.636C206.466 146.716 206.804 146.826 207.175 146.966C207.55 147.106 207.908 147.297 208.249 147.54C208.593 147.778 208.877 148.085 209.101 148.46C209.324 148.835 209.436 149.295 209.436 149.841C209.436 150.47 209.271 151.038 208.942 151.545C208.616 152.053 208.139 152.456 207.51 152.756C206.885 153.055 206.125 153.205 205.232 153.205C204.398 153.205 203.677 153.07 203.067 152.801C202.461 152.532 201.983 152.157 201.635 151.676C201.29 151.195 201.095 150.636 201.05 150H202.504C202.542 150.439 202.69 150.803 202.947 151.091C203.209 151.375 203.538 151.587 203.936 151.727C204.338 151.864 204.769 151.932 205.232 151.932C205.769 151.932 206.252 151.845 206.68 151.67C207.108 151.492 207.447 151.246 207.697 150.932C207.947 150.614 208.072 150.242 208.072 149.818C208.072 149.432 207.964 149.117 207.749 148.875C207.533 148.633 207.249 148.436 206.896 148.284C206.544 148.133 206.163 148 205.754 147.886L204.322 147.477C203.413 147.216 202.694 146.843 202.163 146.358C201.633 145.873 201.368 145.239 201.368 144.455C201.368 143.803 201.544 143.235 201.896 142.75C202.252 142.261 202.73 141.883 203.328 141.614C203.93 141.341 204.603 141.205 205.345 141.205C206.095 141.205 206.762 141.339 207.345 141.608C207.929 141.873 208.391 142.237 208.732 142.699C209.076 143.161 209.258 143.686 209.277 144.273H207.913Z" fill="white"/>
<path d="M64.4545 128V58.1818H72.9091V89.2727H110.136V58.1818H118.591V128H110.136V96.7727H72.9091V128H64.4545ZM194.426 93.0909C194.426 100.455 193.097 106.818 190.438 112.182C187.778 117.545 184.131 121.682 179.494 124.591C174.858 127.5 169.563 128.955 163.608 128.955C157.653 128.955 152.358 127.5 147.722 124.591C143.085 121.682 139.438 117.545 136.778 112.182C134.119 106.818 132.79 100.455 132.79 93.0909C132.79 85.7273 134.119 79.3636 136.778 74C139.438 68.6364 143.085 64.5 147.722 61.5909C152.358 58.6818 157.653 57.2273 163.608 57.2273C169.563 57.2273 174.858 58.6818 179.494 61.5909C184.131 64.5 187.778 68.6364 190.438 74C193.097 79.3636 194.426 85.7273 194.426 93.0909ZM186.244 93.0909C186.244 87.0455 185.233 81.9432 183.21 77.7841C181.21 73.625 178.494 70.4773 175.062 68.3409C171.653 66.2045 167.835 65.1364 163.608 65.1364C159.381 65.1364 155.551 66.2045 152.119 68.3409C148.71 70.4773 145.994 73.625 143.972 77.7841C141.972 81.9432 140.972 87.0455 140.972 93.0909C140.972 99.1364 141.972 104.239 143.972 108.398C145.994 112.557 148.71 115.705 152.119 117.841C155.551 119.977 159.381 121.045 163.608 121.045C167.835 121.045 171.653 119.977 175.062 117.841C178.494 115.705 181.21 112.557 183.21 108.398C185.233 104.239 186.244 99.1364 186.244 93.0909ZM221.324 128L202.233 58.1818H210.824L225.415 115.045H226.097L240.96 58.1818H250.506L265.369 115.045H266.051L280.642 58.1818H289.233L270.142 128H261.415L246.006 72.3636H245.46L230.051 128H221.324Z" fill="white"/>
<line x1="42.5" y1="22" x2="42.5" y2="188" stroke="white" stroke-width="5"/>
<line x1="163.5" y1="161" x2="163.5" y2="188" stroke="white" stroke-width="5"/>
<line x1="163.5" y1="22" x2="163.5" y2="49" stroke="white" stroke-width="5"/>
<line x1="123.5" y1="-1.09278e-07" x2="123.5" y2="27" stroke="white" stroke-width="5"/>
<line x1="166" y1="24.5" x2="40" y2="24.5" stroke="white" stroke-width="5"/>
<line x1="166" y1="185.5" x2="40" y2="185.5" stroke="white" stroke-width="5"/>
<line x1="2.5" x2="2.5" y2="166" stroke="white" stroke-width="5"/>
<line x1="126" y1="2.5" y2="2.5" stroke="white" stroke-width="5"/>
<line x1="44" y1="163.5" y2="163.5" stroke="white" stroke-width="5"/>
</svg>
