<svg width="387" height="153" viewBox="0 0 387 153" fill="none" xmlns="http://www.w3.org/2000/svg">
<path d="M24.2 -1.19209e-05H5.96046e-07V150H24.2V81.6C30.2 72 40.2 65.8 49.8 65.8C57.2 65.8 62.4 68.4 65.4 73.6C69.2 80 69.4 89.6 69.4 98.2V150H93.6V96.4C93.6 81.4 92 67.8 84.4 57.8C78 49.6 68.4 44.6 56 44.6C44 44.6 32.2 50 24.2 61V-1.19209e-05ZM172.456 44.6C141.656 44.6 119.056 68.4 119.056 98.4C119.056 128.6 141.656 152.4 172.456 152.4C203.256 152.4 225.856 128.6 225.856 98.4C225.856 68.4 203.256 44.6 172.456 44.6ZM201.256 98.4C201.256 116.6 189.256 131.2 172.456 131.2C155.656 131.2 143.656 116.6 143.656 98.4C143.656 80.4 155.656 65.8 172.456 65.8C189.256 65.8 201.256 80.4 201.256 98.4ZM324.136 47.2H301.336L281.536 117.4H281.136L264.336 47.2H238.336L266.736 150H293.136L312.136 82.6H312.536L331.136 150H356.536L386.336 47.2H361.536L343.136 117.2H342.736L324.136 47.2Z" fill="#232328"/>
</svg>
